# xmcd
#
# Track frame offsets:
#	150
#	10871
#	23491
#	41733
#	55416
#	70726
#	84775
#	103044
#	116977
#	130456
#	140068
#	155088
#	174099
#	188634
#
# Disc length: 2749 seconds
#
# Revision: 0
# Processed by: cddbd v1.4PL0 Copyright (c) Steve Scherf et al.
# Submitted via: audiograbber 1.80
#
DISCID=b90abb0e
DTITLE=Sal - Friends and Lovers
DYEAR=1900
DGENRE=
TTITLE0=Proud Mary
TTITLE1=I f You Love Me(Let Me Know)
TTITLE2=Until It's Time For You To Go
TTITLE3=Friends
TTITLE4=Hour Glass Of Time
TTITLE5=Moody Blue
TTITLE6=We Can Make The Morning
TTITLE7=My Girl
TTITLE8=C'est La Vie
TTITLE9=Hurt
TTITLE10=For The Good Time
TTITLE11=Suspicious Minds
TTITLE12=And I Love You So
TTITLE13=My Way
EXTD=
EXTT0=
EXTT1=
EXTT2=
EXTT3=
EXTT4=
EXTT5=
EXTT6=
EXTT7=
EXTT8=
EXTT9=
EXTT10=
EXTT11=
EXTT12=
EXTT13=
PLAYORDER=
